<?xml version="1.0" encoding="UTF-8"?>
<!DOCTYPE svg PUBLIC "-//W3C//DTD SVG 1.1//EN" "http://www.w3.org/Graphics/SVG/1.1/DTD/svg11.dtd">
<svg xmlns="http://www.w3.org/2000/svg" version="1.1" width="218px" height="218px" style="shape-rendering:geometricPrecision; text-rendering:geometricPrecision; image-rendering:optimizeQuality; fill-rule:evenodd; clip-rule:evenodd" xmlns:xlink="http://www.w3.org/1999/xlink">
<g><path style="opacity:0.993" fill="#2c2a2c" d="M 52.5,177.5 C 53.5,177.5 54.5,177.5 55.5,177.5C 58.5738,178.302 61.5738,179.302 64.5,180.5C 65.206,181.557 65.5393,181.224 65.5,179.5C 72.3749,184.567 79.3749,184.734 86.5,180C 101.287,167.025 102.287,153.025 89.5,138C 73.1372,127.781 58.3038,129.615 45,143.5C 45.1953,141.255 46.3619,139.422 48.5,138C 52.2406,135.268 56.2406,132.934 60.5,131C 42.8772,131.244 31.0439,139.744 25,156.5C 22.2105,178.09 30.3771,193.923 49.5,204C 51.1647,204.788 52.8314,205.122 54.5,205C 39.1633,194.494 32.3299,179.994 34,161.5C 34.6888,158.592 35.8555,155.925 37.5,153.5C 38.041,155.523 37.541,157.523 36,159.5C 32.8544,177.872 39.0211,192.206 54.5,202.5C 56.292,205.502 58.9586,207.335 62.5,208C 73.9191,210.234 85.2524,209.9 96.5,207C 99.6328,206.14 102.3,204.64 104.5,202.5C 107.861,201.316 110.861,199.483 113.5,197C 112.833,196.667 112.167,196.333 111.5,196C 113.373,194.296 115.04,192.463 116.5,190.5C 120.454,188.38 123.621,185.38 126,181.5C 132.807,171.555 138.307,160.888 142.5,149.5C 139.045,148.901 136.045,147.568 133.5,145.5C 137.714,146.659 141.881,146.659 146,145.5C 146.837,143.649 147.671,141.816 148.5,140C 145.183,139.502 141.85,139.335 138.5,139.5C 137.833,139.5 137.5,139.167 137.5,138.5C 140.85,138.665 144.183,138.498 147.5,138C 148.308,137.692 148.975,137.192 149.5,136.5C 151.575,131.276 153.242,125.942 154.5,120.5C 153.5,120.5 152.5,120.5 151.5,120.5C 153.355,118.967 155.188,117.3 157,115.5C 157.892,112.716 159.058,110.05 160.5,107.5C 160.03,106.537 159.363,106.537 158.5,107.5C 162.928,99.6318 166.594,91.2985 169.5,82.5C 169.376,81.8933 169.043,81.56 168.5,81.5C 171.099,77.8647 172.599,73.8647 173,69.5C 172.004,71.6605 170.504,73.3272 168.5,74.5C 170.729,71.0476 172.729,67.381 174.5,63.5C 171.157,62.9013 168.157,61.568 165.5,59.5C 162.122,67.2574 158.455,74.9241 154.5,82.5C 155.233,83.087 156.233,83.087 157.5,82.5C 154.835,85.3347 152.335,88.3347 150,91.5C 149.333,92.1667 149.333,92.8333 150,93.5C 150.671,92.7476 151.504,92.4142 152.5,92.5C 151.024,94.5 149.191,96.1666 147,97.5C 143.833,103.833 140.667,110.167 137.5,116.5C 138.233,117.087 139.233,117.087 140.5,116.5C 139.086,118.054 137.419,119.388 135.5,120.5C 131.054,127.43 132.054,128.264 138.5,123C 141.117,122.178 143.784,121.678 146.5,121.5C 145.833,122.167 145.167,122.833 144.5,123.5C 142.011,123.298 139.677,123.798 137.5,125C 134.261,126.736 131.927,129.236 130.5,132.5C 127.983,131.638 126.983,132.805 127.5,136C 127.413,139.329 128.746,141.829 131.5,143.5C 131.5,143.833 131.5,144.167 131.5,144.5C 127.534,141.312 125.201,142.312 124.5,147.5C 124.167,148.167 123.833,148.833 123.5,149.5C 115.826,167.343 104.826,182.843 90.5,196C 86.466,199.017 82.1327,201.517 77.5,203.5C 77.1583,202.662 76.4916,202.328 75.5,202.5C 81.9437,199.44 87.9437,195.607 93.5,191C 109.683,174.466 120.517,154.966 126,132.5C 145.511,98.8113 162.344,63.8113 176.5,27.5C 183.693,22.1174 188.027,14.9507 189.5,6C 193.315,3.93082 196.815,4.43082 200,7.5C 181.72,53.3231 164.387,99.6565 148,146.5C 146.926,147.618 145.76,148.618 144.5,149.5C 138.299,165.852 129.799,180.852 119,194.5C 105.061,208.533 88.2275,214.033 68.5,211C 33.5029,205.763 19.0029,185.93 25,151.5C 32.3379,135.574 44.8379,127.908 62.5,128.5C 84.6099,127.125 97.2765,137.291 100.5,159C 98.3165,173.516 90.1498,182.683 76,186.5C 67.8048,184.162 59.9714,181.162 52.5,177.5 Z"/></g>
<g><path style="opacity:1" fill="#e8e800" d="M 167.5,51.5 C 170.866,53.6907 174.533,55.1907 178.5,56C 175.954,62.3102 172.121,63.1435 167,58.5C 166.444,56.1152 166.61,53.7819 167.5,51.5 Z"/></g>
<g><path style="opacity:1" fill="#b4b500" d="M 177.5,53.5 C 181.45,41.9768 185.784,30.6434 190.5,19.5C 191.829,15.1787 193.162,10.8453 194.5,6.5C 196.002,7.08308 197.335,7.91641 198.5,9C 192.086,22.5718 186.253,36.4051 181,50.5C 180.578,52.4257 179.411,53.4257 177.5,53.5 Z"/></g>
<g><path style="opacity:1" fill="#f8f800" d="M 190.5,19.5 C 185.784,30.6434 181.45,41.9768 177.5,53.5C 173.714,53.6068 170.714,52.1068 168.5,49C 171.795,42.242 174.962,35.4087 178,28.5C 181.339,27.0922 184.173,25.0922 186.5,22.5C 187.833,21.5 189.167,20.5 190.5,19.5 Z"/></g>
<g><path style="opacity:1" fill="#dfdf00" d="M 186.5,22.5 C 185.761,22.631 185.094,22.4643 184.5,22C 187.136,17.2286 189.469,12.3953 191.5,7.5C 191.833,8 192.167,8.5 192.5,9C 190.883,13.7289 188.883,18.2289 186.5,22.5 Z"/></g>
<g><path style="opacity:1" fill="#027ef2" d="M 168.5,74.5 C 167.833,74.5 167.5,74.8333 167.5,75.5C 164.883,76.7859 162.55,78.4525 160.5,80.5C 158.973,80.427 157.973,81.0937 157.5,82.5C 156.233,83.087 155.233,83.087 154.5,82.5C 158.455,74.9241 162.122,67.2574 165.5,59.5C 168.157,61.568 171.157,62.9013 174.5,63.5C 172.729,67.381 170.729,71.0476 168.5,74.5 Z"/></g>
<g><path style="opacity:1" fill="#afb001" d="M 168.5,81.5 C 168.167,81.5 167.833,81.5 167.5,81.5C 166.794,79.521 166.794,77.8543 167.5,76.5C 167.5,76.1667 167.5,75.8333 167.5,75.5C 167.5,74.8333 167.833,74.5 168.5,74.5C 170.504,73.3272 172.004,71.6605 173,69.5C 172.599,73.8647 171.099,77.8647 168.5,81.5 Z"/></g>
<g><path style="opacity:1" fill="#1f1710" d="M 167.5,75.5 C 167.5,75.8333 167.5,76.1667 167.5,76.5C 165.628,78.6037 163.295,79.937 160.5,80.5C 162.55,78.4525 164.883,76.7859 167.5,75.5 Z"/></g>
<g><path style="opacity:1" fill="#ebeb00" d="M 167.5,76.5 C 166.794,77.8543 166.794,79.521 167.5,81.5C 164.127,84.1775 160.794,86.8442 157.5,89.5C 155.326,89.7497 153.659,90.7497 152.5,92.5C 151.504,92.4142 150.671,92.7476 150,93.5C 149.333,92.8333 149.333,92.1667 150,91.5C 152.335,88.3347 154.835,85.3347 157.5,82.5C 159.027,82.573 160.027,81.9063 160.5,80.5C 163.295,79.937 165.628,78.6037 167.5,76.5 Z"/></g>
<g><path style="opacity:1" fill="#231b08" d="M 160.5,80.5 C 160.027,81.9063 159.027,82.573 157.5,82.5C 157.973,81.0937 158.973,80.427 160.5,80.5 Z"/></g>
<g><path style="opacity:1" fill="#120d15" d="M 167.5,81.5 C 167.833,81.5 168.167,81.5 168.5,81.5C 166.806,83.8606 164.806,85.8606 162.5,87.5C 160.95,88.4408 159.284,89.1075 157.5,89.5C 160.794,86.8442 164.127,84.1775 167.5,81.5 Z"/></g>
<g><path style="opacity:1" fill="#005dba" d="M 168.5,81.5 C 169.043,81.56 169.376,81.8933 169.5,82.5C 166.594,91.2985 162.928,99.6318 158.5,107.5C 155.825,109.17 153.159,110.836 150.5,112.5C 150.167,112.5 149.833,112.5 149.5,112.5C 146.99,112.054 144.99,112.72 143.5,114.5C 143.167,114.5 142.833,114.5 142.5,114.5C 142.414,113.504 142.748,112.671 143.5,112C 146.834,111.211 150.001,110.044 153,108.5C 156.922,101.361 160.089,94.361 162.5,87.5C 164.806,85.8606 166.806,83.8606 168.5,81.5 Z"/></g>
<g><path style="opacity:1" fill="#191929" d="M 157.5,89.5 C 156.514,91.4077 154.848,92.4077 152.5,92.5C 153.659,90.7497 155.326,89.7497 157.5,89.5 Z"/></g>
<g><path style="opacity:1" fill="#0181fb" d="M 162.5,87.5 C 160.089,94.361 156.922,101.361 153,108.5C 150.001,110.044 146.834,111.211 143.5,112C 142.748,112.671 142.414,113.504 142.5,114.5C 141.5,114.833 140.833,115.5 140.5,116.5C 139.233,117.087 138.233,117.087 137.5,116.5C 140.667,110.167 143.833,103.833 147,97.5C 149.191,96.1666 151.024,94.5 152.5,92.5C 154.848,92.4077 156.514,91.4077 157.5,89.5C 159.284,89.1075 160.95,88.4408 162.5,87.5 Z"/></g>
<g><path style="opacity:1" fill="#110d10" d="M 158.5,107.5 C 156.807,110.682 154.141,112.348 150.5,112.5C 153.159,110.836 155.825,109.17 158.5,107.5 Z"/></g>
<g><path style="opacity:1" fill="#0f091b" d="M 149.5,112.5 C 149.5,112.833 149.5,113.167 149.5,113.5C 147.435,113.517 145.435,113.85 143.5,114.5C 144.99,112.72 146.99,112.054 149.5,112.5 Z"/></g>
<g><path style="opacity:1" fill="#f0f000" d="M 149.5,113.5 C 150.239,113.369 150.906,113.536 151.5,114C 149.505,116.157 148.172,118.657 147.5,121.5C 147.167,121.5 146.833,121.5 146.5,121.5C 143.784,121.678 141.117,122.178 138.5,123C 132.054,128.264 131.054,127.43 135.5,120.5C 137.419,119.388 139.086,118.054 140.5,116.5C 142.027,116.573 143.027,115.906 143.5,114.5C 145.435,113.85 147.435,113.517 149.5,113.5 Z"/></g>
<g><path style="opacity:1" fill="#b0b000" d="M 151.5,120.5 C 150.167,120.833 148.833,121.167 147.5,121.5C 148.172,118.657 149.505,116.157 151.5,114C 150.906,113.536 150.239,113.369 149.5,113.5C 149.5,113.167 149.5,112.833 149.5,112.5C 149.833,112.5 150.167,112.5 150.5,112.5C 154.141,112.348 156.807,110.682 158.5,107.5C 159.363,106.537 160.03,106.537 160.5,107.5C 159.058,110.05 157.892,112.716 157,115.5C 155.188,117.3 153.355,118.967 151.5,120.5 Z"/></g>
<g><path style="opacity:1" fill="#231a0a" d="M 142.5,114.5 C 142.833,114.5 143.167,114.5 143.5,114.5C 143.027,115.906 142.027,116.573 140.5,116.5C 140.833,115.5 141.5,114.833 142.5,114.5 Z"/></g>
<g><path style="opacity:1" fill="#0454ad" d="M 151.5,120.5 C 152.5,120.5 153.5,120.5 154.5,120.5C 153.242,125.942 151.575,131.276 149.5,136.5C 148.975,137.192 148.308,137.692 147.5,138C 144.183,138.498 140.85,138.665 137.5,138.5C 137.5,138.167 137.5,137.833 137.5,137.5C 138.376,137.631 139.043,137.298 139.5,136.5C 141.453,132.091 143.787,127.924 146.5,124C 145.906,123.536 145.239,123.369 144.5,123.5C 145.167,122.833 145.833,122.167 146.5,121.5C 146.833,121.5 147.167,121.5 147.5,121.5C 148.833,121.167 150.167,120.833 151.5,120.5 Z"/></g>
<g><path style="opacity:1" fill="#047eef" d="M 144.5,123.5 C 145.239,123.369 145.906,123.536 146.5,124C 143.787,127.924 141.453,132.091 139.5,136.5C 139.043,137.298 138.376,137.631 137.5,137.5C 135.15,136.139 132.816,134.806 130.5,133.5C 130.5,133.167 130.5,132.833 130.5,132.5C 131.927,129.236 134.261,126.736 137.5,125C 139.677,123.798 142.011,123.298 144.5,123.5 Z"/></g>
<g><path style="opacity:1" fill="#0180f7" d="M 65.5,179.5 C 62.5637,174.275 61.7304,168.608 63,162.5C 65.6326,157.268 69.7992,155.435 75.5,157C 78.7703,158.525 79.7703,160.858 78.5,164C 71.6602,163.83 68.8269,166.997 70,173.5C 80.2919,178.027 87.6252,175.027 92,164.5C 94.0875,146.92 86.2542,138.753 68.5,140C 53.573,147.006 46.7397,158.839 48,175.5C 48.21,177.058 48.71,178.391 49.5,179.5C 52.7525,188.153 58.0858,195.319 65.5,201C 67.4068,202.122 69.4068,202.955 71.5,203.5C 71.5,204.167 71.8333,204.5 72.5,204.5C 71.7261,205.147 70.7261,205.48 69.5,205.5C 64.4598,204.625 59.4598,203.625 54.5,202.5C 39.0211,192.206 32.8544,177.872 36,159.5C 37.541,157.523 38.041,155.523 37.5,153.5C 35.8555,155.925 34.6888,158.592 34,161.5C 32.3299,179.994 39.1633,194.494 54.5,205C 52.8314,205.122 51.1647,204.788 49.5,204C 30.3771,193.923 22.2105,178.09 25,156.5C 31.0439,139.744 42.8772,131.244 60.5,131C 56.2406,132.934 52.2406,135.268 48.5,138C 46.3619,139.422 45.1953,141.255 45,143.5C 58.3038,129.615 73.1372,127.781 89.5,138C 102.287,153.025 101.287,167.025 86.5,180C 79.3749,184.734 72.3749,184.567 65.5,179.5 Z"/></g>
<g><path style="opacity:1" fill="#f6f600" d="M 130.5,132.5 C 130.5,132.833 130.5,133.167 130.5,133.5C 131.992,136.323 134.326,137.99 137.5,138.5C 137.5,139.167 137.833,139.5 138.5,139.5C 136.66,141.669 134.326,143.002 131.5,143.5C 128.746,141.829 127.413,139.329 127.5,136C 126.983,132.805 127.983,131.638 130.5,132.5 Z"/></g>
<g><path style="opacity:1" fill="#221d0e" d="M 130.5,133.5 C 132.816,134.806 135.15,136.139 137.5,137.5C 137.5,137.833 137.5,138.167 137.5,138.5C 134.326,137.99 131.992,136.323 130.5,133.5 Z"/></g>
<g><path style="opacity:1" fill="#b5b600" d="M 138.5,139.5 C 141.85,139.335 145.183,139.502 148.5,140C 147.671,141.816 146.837,143.649 146,145.5C 141.881,146.659 137.714,146.659 133.5,145.5C 133.158,144.662 132.492,144.328 131.5,144.5C 131.5,144.167 131.5,143.833 131.5,143.5C 134.326,143.002 136.66,141.669 138.5,139.5 Z"/></g>
<g><path style="opacity:1" fill="#0059b4" d="M 131.5,144.5 C 132.492,144.328 133.158,144.662 133.5,145.5C 136.045,147.568 139.045,148.901 142.5,149.5C 138.307,160.888 132.807,171.555 126,181.5C 123.621,185.38 120.454,188.38 116.5,190.5C 125.099,177.135 127.766,162.802 124.5,147.5C 125.201,142.312 127.534,141.312 131.5,144.5 Z"/></g>
<g><path style="opacity:1" fill="#0280f8" d="M 124.5,147.5 C 127.766,162.802 125.099,177.135 116.5,190.5C 115.04,192.463 113.373,194.296 111.5,196C 112.167,196.333 112.833,196.667 113.5,197C 110.861,199.483 107.861,201.316 104.5,202.5C 105.574,201.115 106.907,199.949 108.5,199C 105.053,199.712 101.719,201.045 98.5,203C 94.8547,204.166 91.188,204.833 87.5,205C 97.3705,199.967 105.87,193.134 113,184.5C 113.667,183.833 113.667,183.167 113,182.5C 104.256,192.769 93.7559,200.436 81.5,205.5C 80.4019,204.603 80.4019,203.77 81.5,203C 102.307,190.081 116.307,172.247 123.5,149.5C 123.833,148.833 124.167,148.167 124.5,147.5 Z"/></g>
<g><path style="opacity:1" fill="#005ab6" d="M 64.5,180.5 C 61.5738,179.302 58.5738,178.302 55.5,177.5C 49.9324,174.99 48.0991,170.657 50,164.5C 50.8269,159.181 52.9935,154.515 56.5,150.5C 60.8881,151.847 65.2215,153.347 69.5,155C 61.6953,158.781 58.862,164.947 61,173.5C 61.6529,176.139 62.8196,178.473 64.5,180.5 Z"/></g>
<g><path style="opacity:1" fill="#060d18" d="M 65.5,179.5 C 65.5393,181.224 65.206,181.557 64.5,180.5C 62.8196,178.473 61.6529,176.139 61,173.5C 58.862,164.947 61.6953,158.781 69.5,155C 65.2215,153.347 60.8881,151.847 56.5,150.5C 52.9935,154.515 50.8269,159.181 50,164.5C 48.0991,170.657 49.9324,174.99 55.5,177.5C 54.5,177.5 53.5,177.5 52.5,177.5C 52.1667,177.5 51.8333,177.5 51.5,177.5C 51.44,176.957 51.1067,176.624 50.5,176.5C 49.6143,177.325 49.281,178.325 49.5,179.5C 48.71,178.391 48.21,177.058 48,175.5C 46.7397,158.839 53.573,147.006 68.5,140C 86.2542,138.753 94.0875,146.92 92,164.5C 87.6252,175.027 80.2919,178.027 70,173.5C 68.8269,166.997 71.6602,163.83 78.5,164C 79.7703,160.858 78.7703,158.525 75.5,157C 69.7992,155.435 65.6326,157.268 63,162.5C 61.7304,168.608 62.5637,174.275 65.5,179.5 Z"/></g>
<g><path style="opacity:1" fill="#002c5a" d="M 68.5,141.5 C 86.0025,140.171 93.1692,148.171 90,165.5C 86.8985,172.298 81.7318,175.131 74.5,174C 71.041,173.084 70.041,171.084 71.5,168C 74.4429,167.058 77.2762,165.892 80,164.5C 80.6667,162.5 80.6667,160.5 80,158.5C 77.0465,156.274 73.8798,154.441 70.5,153C 66.016,152.129 61.6827,150.796 57.5,149C 60.9199,145.971 64.5866,143.471 68.5,141.5 Z"/></g>
<g><path style="opacity:1" fill="#0286eb" d="M 123.5,149.5 C 116.307,172.247 102.307,190.081 81.5,203C 80.4019,203.77 80.4019,204.603 81.5,205.5C 79.3453,205.628 77.3453,205.128 75.5,204C 76.0944,203.536 76.7611,203.369 77.5,203.5C 82.1327,201.517 86.466,199.017 90.5,196C 104.826,182.843 115.826,167.343 123.5,149.5 Z"/></g>
<g><path style="opacity:0.663" fill="#373439" d="M 51.5,177.5 C 50.9569,177.56 50.6236,177.893 50.5,178.5C 54.9123,190.246 62.9123,198.246 74.5,202.5C 73.791,203.404 72.791,203.737 71.5,203.5C 69.4068,202.955 67.4068,202.122 65.5,201C 58.0858,195.319 52.7525,188.153 49.5,179.5C 49.281,178.325 49.6143,177.325 50.5,176.5C 51.1067,176.624 51.44,176.957 51.5,177.5 Z"/></g>
<g><path style="opacity:1" fill="#080f1a" d="M 104.5,202.5 C 94.0343,206.88 83.3676,207.547 72.5,204.5C 71.8333,204.5 71.5,204.167 71.5,203.5C 72.791,203.737 73.791,203.404 74.5,202.5C 74.8333,202.5 75.1667,202.5 75.5,202.5C 76.4916,202.328 77.1583,202.662 77.5,203.5C 76.7611,203.369 76.0944,203.536 75.5,204C 77.3453,205.128 79.3453,205.628 81.5,205.5C 93.7559,200.436 104.256,192.769 113,182.5C 113.667,183.167 113.667,183.833 113,184.5C 105.87,193.134 97.3705,199.967 87.5,205C 91.188,204.833 94.8547,204.166 98.5,203C 101.719,201.045 105.053,199.712 108.5,199C 106.907,199.949 105.574,201.115 104.5,202.5 Z"/></g>
<g><path style="opacity:0.345" fill="#b0b0b0" d="M 7.5,206.5 C 8.59832,207.601 8.76498,208.934 8,210.5C 7.50999,209.207 7.34332,207.873 7.5,206.5 Z"/></g>
<g><path style="opacity:1" fill="#0057b1" d="M 54.5,202.5 C 59.4598,203.625 64.4598,204.625 69.5,205.5C 70.7261,205.48 71.7261,205.147 72.5,204.5C 83.3676,207.547 94.0343,206.88 104.5,202.5C 102.3,204.64 99.6328,206.14 96.5,207C 85.2524,209.9 73.9191,210.234 62.5,208C 58.9586,207.335 56.292,205.502 54.5,202.5 Z"/></g>
</svg>
