<?xml version="1.0" encoding="UTF-8"?>
<!DOCTYPE svg PUBLIC "-//W3C//DTD SVG 1.1//EN" "http://www.w3.org/Graphics/SVG/1.1/DTD/svg11.dtd">
<svg xmlns="http://www.w3.org/2000/svg" version="1.1" width="499px" height="282px" style="shape-rendering:geometricPrecision; text-rendering:geometricPrecision; image-rendering:optimizeQuality; fill-rule:evenodd; clip-rule:evenodd" xmlns:xlink="http://www.w3.org/1999/xlink">
<g><path style="opacity:1" fill="#fefefd" d="M -0.5,-0.5 C 165.833,-0.5 332.167,-0.5 498.5,-0.5C 498.5,93.5 498.5,187.5 498.5,281.5C 332.167,281.5 165.833,281.5 -0.5,281.5C -0.5,187.5 -0.5,93.5 -0.5,-0.5 Z"/></g>
<g><path style="opacity:1" fill="#8a6343" d="M 110.5,15.5 C 171.465,14.5474 213.299,42.214 236,98.5C 251.145,151.834 239.311,198 200.5,237C 159.035,270.208 114.368,275.208 66.5,252C 25.167,226.518 4.16699,189.351 3.5,140.5C 4.38559,94.5534 23.7189,58.7201 61.5,33C 76.7251,23.8708 93.0584,18.0375 110.5,15.5 Z"/></g>
<g><path style="opacity:1" fill="#b0524a" d="M 292.5,62.5 C 285.937,65.7213 279.603,69.388 273.5,73.5C 271.027,71.7583 271.027,69.925 273.5,68C 282.597,64.2843 290.93,59.2843 298.5,53C 307.54,49.4898 315.54,44.4898 322.5,38C 333.154,33.5197 343.154,28.0197 352.5,21.5C 357.419,17.9612 362.919,15.6279 369,14.5C 378.029,16.2566 385.529,20.4233 391.5,27C 386.845,27.6705 382.845,26.3372 379.5,23C 374.129,21.2753 368.796,21.2753 363.5,23C 339.208,35.1434 315.542,48.3101 292.5,62.5 Z"/></g>
<g><path style="opacity:1" fill="#8f4941" d="M 441.5,49.5 C 452.099,55.4397 462.433,61.7731 472.5,68.5C 471.127,68.6567 469.793,68.49 468.5,68C 461.85,63.4442 454.85,59.4442 447.5,56C 445.146,54.0278 443.146,51.8612 441.5,49.5 Z"/></g>
<g><path style="opacity:1" fill="#8d4841" d="M 320.5,36.5 C 319.969,38.6237 318.635,40.1237 316.5,41C 303.167,49 289.833,57 276.5,65C 275.552,65.4828 274.552,65.6495 273.5,65.5C 288.628,55.0954 304.295,45.4288 320.5,36.5 Z"/></g>
<g><path style="opacity:1" fill="#faf9f8" d="M 182.5,128.5 C 182.5,136.167 182.5,143.833 182.5,151.5C 181.167,151.5 179.833,151.5 178.5,151.5C 178.825,143.648 178.492,135.982 177.5,128.5C 172.805,123.019 168.305,123.353 164,129.5C 162.568,137.054 162.068,144.721 162.5,152.5C 160.833,152.5 159.167,152.5 157.5,152.5C 157.5,136.833 157.5,121.167 157.5,105.5C 159.167,105.5 160.833,105.5 162.5,105.5C 162.334,112.175 162.5,118.842 163,125.5C 168.447,119.71 174.447,119.043 181,123.5C 182.009,125.025 182.509,126.692 182.5,128.5 Z"/></g>
<g><path style="opacity:1" fill="#f6f3f1" d="M 95.5,120.5 C 112.642,119.767 119.142,127.767 115,144.5C 109.532,153.7 102.032,155.867 92.5,151C 85.9817,143.637 84.8151,135.47 89,126.5C 91.0627,124.266 93.2294,122.266 95.5,120.5 Z"/></g>
<g><path style="opacity:1" fill="#f8f6f4" d="M 77.5,126.5 C 77.5,134.833 77.5,143.167 77.5,151.5C 76.1667,151.5 74.8333,151.5 73.5,151.5C 73.8254,143.648 73.492,135.982 72.5,128.5C 67.0499,122.627 62.8832,123.627 60,131.5C 59.5004,138.492 59.3337,145.492 59.5,152.5C 57.8333,152.5 56.1667,152.5 54.5,152.5C 54.6664,144.16 54.4997,135.827 54,127.5C 48.8415,123.003 44.8415,124.003 42,130.5C 41.5003,137.826 41.3337,145.159 41.5,152.5C 39.8333,152.5 38.1667,152.5 36.5,152.5C 36.5,141.833 36.5,131.167 36.5,120.5C 38.1667,120.5 39.8333,120.5 41.5,120.5C 41.0301,124.97 42.0301,125.47 44.5,122C 50.7742,119.033 55.6076,120.533 59,126.5C 63.2446,119.983 68.7446,118.817 75.5,123C 76.305,124.113 76.9717,125.279 77.5,126.5 Z"/></g>
<g><path style="opacity:1" fill="#f6f3f1" d="M 131.5,120.5 C 135.936,120.21 140.27,120.71 144.5,122C 146.227,123.389 147.561,125.056 148.5,127C 148.046,128.622 147.046,129.788 145.5,130.5C 138.556,121.964 132.722,122.631 128,132.5C 126.867,138.772 128.701,143.938 133.5,148C 138.998,149.618 143.331,148.118 146.5,143.5C 147.902,143.865 148.902,144.699 149.5,146C 144.086,153.87 137.086,155.537 128.5,151C 122.072,143.652 120.905,135.485 125,126.5C 127.063,124.266 129.229,122.266 131.5,120.5 Z"/></g>
<g><path style="opacity:1" fill="#f5f2ef" d="M 200.5,120.5 C 207.387,119.286 212.553,121.619 216,127.5C 216.197,135.549 216.697,143.549 217.5,151.5C 215.955,152.452 214.288,152.785 212.5,152.5C 212.995,146.814 211.995,146.314 209.5,151C 200.041,156.265 194.041,153.765 191.5,143.5C 192.246,138.253 195.246,135.086 200.5,134C 204.152,133.501 207.818,133.335 211.5,133.5C 209.58,123.458 204.913,121.958 197.5,129C 194.66,129.488 193.494,128.321 194,125.5C 195.965,123.45 198.132,121.783 200.5,120.5 Z"/></g>
<g><path style="opacity:1" fill="#8c6646" d="M 97.5,124.5 C 103.204,123.436 107.371,125.436 110,130.5C 113.074,139.974 110.074,146.308 101,149.5C 95.5717,148.403 92.5717,145.07 92,139.5C 91.3333,136.833 91.3333,134.167 92,131.5C 93.6665,129.004 95.4998,126.671 97.5,124.5 Z"/></g>
<g><path style="opacity:1" fill="#904841" d="M 273.5,65.5 C 267.797,69.4521 262.297,73.7855 257,78.5C 254.936,84.283 253.936,90.283 254,96.5C 253.138,129.515 253.472,162.515 255,195.5C 255.695,205.736 260.528,213.236 269.5,218C 268.944,218.383 268.611,218.883 268.5,219.5C 265.319,217.163 261.986,214.996 258.5,213C 256.383,211.269 254.883,209.102 254,206.5C 253.273,199.506 252.607,192.506 252,185.5C 251.333,157.167 251.333,128.833 252,100.5C 252.417,92.7401 253.417,85.0735 255,77.5C 260.627,72.6072 266.794,68.6072 273.5,65.5 Z"/></g>
<g><path style="opacity:1" fill="#c2ae9e" d="M 77.5,126.5 C 78.493,134.984 78.8264,143.651 78.5,152.5C 76.5,152.5 74.5,152.5 72.5,152.5C 72.5,144.5 72.5,136.5 72.5,128.5C 73.492,135.982 73.8254,143.648 73.5,151.5C 74.8333,151.5 76.1667,151.5 77.5,151.5C 77.5,143.167 77.5,134.833 77.5,126.5 Z"/></g>
<g><path style="opacity:1" fill="#c0ac9b" d="M 177.5,128.5 C 178.492,135.982 178.825,143.648 178.5,151.5C 179.833,151.5 181.167,151.5 182.5,151.5C 182.5,143.833 182.5,136.167 182.5,128.5C 183.492,136.316 183.826,144.316 183.5,152.5C 181.5,152.5 179.5,152.5 177.5,152.5C 177.5,144.5 177.5,136.5 177.5,128.5 Z"/></g>
<g><path style="opacity:1" fill="#8d6748" d="M 201.5,137.5 C 204.833,137.5 208.167,137.5 211.5,137.5C 211.542,146.784 207.209,150.284 198.5,148C 195.374,143.338 196.374,139.838 201.5,137.5 Z"/></g>
<g><path style="opacity:1" fill="#924841" d="M 441.5,49.5 C 439.94,49.4809 438.44,49.1476 437,48.5C 430.456,43.751 423.29,40.5843 415.5,39C 408.699,34.0036 401.365,30.1703 393.5,27.5C 393.351,28.552 393.517,29.552 394,30.5C 397.202,32.3978 400.035,34.7311 402.5,37.5C 411.012,43.0385 420.012,47.5385 429.5,51C 438.102,58.7967 447.769,64.7967 458.5,69C 459.743,70.1545 460.743,71.4878 461.5,73C 466.921,74.7992 471.421,77.9659 475,82.5C 476.921,92.0641 477.921,101.731 478,111.5C 478.667,140.833 478.667,170.167 478,199.5C 476.365,202.729 474.198,205.562 471.5,208C 441.274,228.62 409.607,246.953 376.5,263C 371.516,264.921 366.516,264.921 361.5,263C 356.721,260.291 351.721,257.957 346.5,256C 344.424,253.416 341.757,251.749 338.5,251C 337.748,250.329 337.414,249.496 337.5,248.5C 346.835,253.834 356.501,258.667 366.5,263C 368.5,263.667 370.5,263.667 372.5,263C 404.967,246.94 436.3,229.106 466.5,209.5C 468.546,207.721 470.713,206.054 473,204.5C 474.085,199.563 474.752,194.563 475,189.5C 476.578,162.01 476.745,134.677 475.5,107.5C 475.709,99.0475 474.876,90.7141 473,82.5C 464.034,75.6035 454.534,69.6035 444.5,64.5C 421.664,49.2403 397.664,35.7403 372.5,24C 369.406,23.3482 366.406,23.6815 363.5,25C 329.789,42.6001 297.289,62.1001 266,83.5C 265.138,85.087 264.471,86.7536 264,88.5C 262.711,114.817 262.211,141.15 262.5,167.5C 262.616,175.693 263.283,183.693 264.5,191.5C 264.234,195.605 264.734,199.605 266,203.5C 272.184,209.195 279.017,213.862 286.5,217.5C 298.665,225.417 310.999,233.084 323.5,240.5C 320.784,240.322 318.117,239.822 315.5,239C 309.006,233.247 301.672,228.747 293.5,225.5C 291.833,224 290.167,222.5 288.5,221C 281.833,217 275.167,213 268.5,209C 266.383,207.269 264.883,205.102 264,202.5C 263.06,196.481 262.06,190.481 261,184.5C 260.333,156.833 260.333,129.167 261,101.5C 261.958,94.4269 263.125,87.4269 264.5,80.5C 267.588,79.2821 270.588,77.7821 273.5,76C 280.287,71.9785 286.621,67.4785 292.5,62.5C 315.542,48.3101 339.208,35.1434 363.5,23C 368.796,21.2753 374.129,21.2753 379.5,23C 382.845,26.3372 386.845,27.6705 391.5,27C 385.529,20.4233 378.029,16.2566 369,14.5C 362.919,15.6279 357.419,17.9612 352.5,21.5C 342.669,25.9159 333.003,30.5825 323.5,35.5C 334.107,28.5223 345.107,22.0223 356.5,16C 360.833,14.1667 365.167,12.3333 369.5,10.5C 394.425,21.9595 418.425,34.9595 441.5,49.5 Z"/></g>
<g><path style="opacity:1" fill="#f6f5f2" d="M 444.5,64.5 C 392.113,63.3541 345.447,79.5207 304.5,113C 289.659,125.508 276.159,139.342 264,154.5C 263.825,159.019 263.325,163.353 262.5,167.5C 262.211,141.15 262.711,114.817 264,88.5C 264.471,86.7536 265.138,85.087 266,83.5C 297.289,62.1001 329.789,42.6001 363.5,25C 366.406,23.6815 369.406,23.3482 372.5,24C 397.664,35.7403 421.664,49.2403 444.5,64.5 Z"/></g>
<g><path style="opacity:1" fill="#934840" d="M 472.5,68.5 C 476.314,70.9127 479.981,73.5793 483.5,76.5C 484.655,80.4266 485.488,84.4266 486,88.5C 486.667,124.833 486.667,161.167 486,197.5C 485.636,202.322 484.636,206.988 483,211.5C 447.432,235.199 410.599,256.699 372.5,276C 370.833,276.667 369.167,276.667 367.5,276C 354.991,270.249 342.991,263.749 331.5,256.5C 343.053,260.884 354.053,266.384 364.5,273C 367.833,273.667 371.167,273.667 374.5,273C 376.924,268.942 380.591,266.608 385.5,266C 405.661,253.921 426.328,242.921 447.5,233C 455.265,226.925 463.599,221.592 472.5,217C 475.651,214.184 478.818,211.351 482,208.5C 482.667,201.167 483.333,193.833 484,186.5C 484.924,150.479 484.591,114.479 483,78.5C 480.451,75.95 477.618,73.7833 474.5,72C 473.177,71.1841 472.511,70.0174 472.5,68.5 Z"/></g>
<g><path style="opacity:1" fill="#ad5148" d="M 352.5,21.5 C 343.154,28.0197 333.154,33.5197 322.5,38C 315.54,44.4898 307.54,49.4898 298.5,53C 290.93,59.2843 282.597,64.2843 273.5,68C 271.027,69.925 271.027,71.7583 273.5,73.5C 279.603,69.388 285.937,65.7213 292.5,62.5C 286.621,67.4785 280.287,71.9785 273.5,76C 270.588,77.7821 267.588,79.2821 264.5,80.5C 263.125,87.4269 261.958,94.4269 261,101.5C 260.333,129.167 260.333,156.833 261,184.5C 262.06,190.481 263.06,196.481 264,202.5C 264.883,205.102 266.383,207.269 268.5,209C 275.167,213 281.833,217 288.5,221C 290.167,222.5 291.833,224 293.5,225.5C 301.672,228.747 309.006,233.247 315.5,239C 318.117,239.822 320.784,240.322 323.5,240.5C 328.446,242.803 333.113,245.469 337.5,248.5C 337.414,249.496 337.748,250.329 338.5,251C 341.757,251.749 344.424,253.416 346.5,256C 351.721,257.957 356.721,260.291 361.5,263C 366.516,264.921 371.516,264.921 376.5,263C 409.607,246.953 441.274,228.62 471.5,208C 474.198,205.562 476.365,202.729 478,199.5C 478.667,170.167 478.667,140.833 478,111.5C 477.921,101.731 476.921,92.0641 475,82.5C 471.421,77.9659 466.921,74.7992 461.5,73C 460.743,71.4878 459.743,70.1545 458.5,69C 447.769,64.7967 438.102,58.7967 429.5,51C 420.012,47.5385 411.012,43.0385 402.5,37.5C 400.035,34.7311 397.202,32.3978 394,30.5C 393.517,29.552 393.351,28.552 393.5,27.5C 401.365,30.1703 408.699,34.0036 415.5,39C 423.29,40.5843 430.456,43.751 437,48.5C 438.44,49.1476 439.94,49.4809 441.5,49.5C 443.146,51.8612 445.146,54.0278 447.5,56C 454.85,59.4442 461.85,63.4442 468.5,68C 469.793,68.49 471.127,68.6567 472.5,68.5C 472.511,70.0174 473.177,71.1841 474.5,72C 477.618,73.7833 480.451,75.95 483,78.5C 484.591,114.479 484.924,150.479 484,186.5C 483.333,193.833 482.667,201.167 482,208.5C 478.818,211.351 475.651,214.184 472.5,217C 463.599,221.592 455.265,226.925 447.5,233C 426.328,242.921 405.661,253.921 385.5,266C 380.591,266.608 376.924,268.942 374.5,273C 371.167,273.667 367.833,273.667 364.5,273C 354.053,266.384 343.053,260.884 331.5,256.5C 331.047,255.542 330.381,254.708 329.5,254C 318.775,248.463 308.441,242.129 298.5,235C 295.639,234.46 292.972,233.46 290.5,232C 283.775,227.307 276.775,223.14 269.5,219.5C 269.167,219.5 268.833,219.5 268.5,219.5C 268.611,218.883 268.944,218.383 269.5,218C 260.528,213.236 255.695,205.736 255,195.5C 253.472,162.515 253.138,129.515 254,96.5C 253.936,90.283 254.936,84.283 257,78.5C 262.297,73.7855 267.797,69.4521 273.5,65.5C 274.552,65.6495 275.552,65.4828 276.5,65C 289.833,57 303.167,49 316.5,41C 318.635,40.1237 319.969,38.6237 320.5,36.5C 321.391,35.8902 322.391,35.5569 323.5,35.5C 333.003,30.5825 342.669,25.9159 352.5,21.5 Z"/></g>
<g><path style="opacity:1" fill="#f6e8c8" d="M 466.5,209.5 C 436.3,229.106 404.967,246.94 372.5,263C 370.5,263.667 368.5,263.667 366.5,263C 356.501,258.667 346.835,253.834 337.5,248.5C 333.113,245.469 328.446,242.803 323.5,240.5C 310.999,233.084 298.665,225.417 286.5,217.5C 286.953,216.542 287.619,215.708 288.5,215C 321.369,202.233 354.869,195.067 389,193.5C 411.345,193.879 433.178,197.379 454.5,204C 458.848,205.379 462.848,207.213 466.5,209.5 Z"/></g>
<g><path style="opacity:1" fill="#954941" d="M 358.5,137.5 C 361.97,136.875 364.804,137.875 367,140.5C 367.333,151.833 367.667,163.167 368,174.5C 370.382,175.866 372.548,175.533 374.5,173.5C 374.907,177 373.241,179.5 369.5,181C 365.756,181.929 362.256,181.429 359,179.5C 357.737,168.906 357.07,158.239 357,147.5C 356.439,146.978 355.772,146.645 355,146.5C 352.679,147.487 351.013,149.154 350,151.5C 347.835,157.519 346.001,163.519 344.5,169.5C 344.739,165.158 345.073,160.824 345.5,156.5C 345.5,155.833 345.5,155.167 345.5,154.5C 347.128,149.91 349.295,145.577 352,141.5C 353.638,139.266 355.805,137.933 358.5,137.5 Z"/></g>
<g><path style="opacity:1" fill="#ad534a" d="M 303.5,175.5 C 303.611,176.117 303.944,176.617 304.5,177C 307.562,177.741 310.562,177.575 313.5,176.5C 314.298,176.957 314.631,177.624 314.5,178.5C 304.036,184.909 295.036,183.242 287.5,173.5C 285.401,167.146 285.068,160.813 286.5,154.5C 288.334,151.573 290.667,148.907 293.5,146.5C 293.833,147 294.167,147.5 294.5,148C 290.706,158.012 292.373,167.012 299.5,175C 300.793,175.49 302.127,175.657 303.5,175.5 Z"/></g>
<g><path style="opacity:1" fill="#9e4f47" d="M 296.5,167.5 C 298.124,170.79 300.457,173.457 303.5,175.5C 302.127,175.657 300.793,175.49 299.5,175C 292.373,167.012 290.706,158.012 294.5,148C 294.167,147.5 293.833,147 293.5,146.5C 290.667,148.907 288.334,151.573 286.5,154.5C 291.389,141.553 300.722,136.053 314.5,138C 324.248,140.885 324.582,144.052 315.5,147.5C 307.383,140.025 300.549,141.025 295,150.5C 293.99,156.38 294.49,162.046 296.5,167.5 Z"/></g>
<g><path style="opacity:1" fill="#b5554c" d="M 358.5,138.5 C 361.652,137.959 364.152,138.959 366,141.5C 366.333,152.833 366.667,164.167 367,175.5C 371.979,178.147 371.646,179.481 366,179.5C 363.648,179.695 361.648,179.028 360,177.5C 359.832,166.818 359.332,156.151 358.5,145.5C 357.264,144.754 355.93,144.421 354.5,144.5C 354.238,143.022 354.571,141.689 355.5,140.5C 356.739,140.058 357.739,139.391 358.5,138.5 Z"/></g>
<g><path style="opacity:1" fill="#f5ecd7" d="M 475.5,107.5 C 476.745,134.677 476.578,162.01 475,189.5C 474.752,194.563 474.085,199.563 473,204.5C 470.713,206.054 468.546,207.721 466.5,209.5C 462.848,207.213 458.848,205.379 454.5,204C 433.178,197.379 411.345,193.879 389,193.5C 354.869,195.067 321.369,202.233 288.5,215C 287.619,215.708 286.953,216.542 286.5,217.5C 279.017,213.862 272.184,209.195 266,203.5C 264.734,199.605 264.234,195.605 264.5,191.5C 272.185,185.477 279.851,179.477 287.5,173.5C 295.036,183.242 304.036,184.909 314.5,178.5C 318.57,175.94 322.236,172.773 325.5,169C 324.975,168.308 324.308,167.808 323.5,167.5C 320.027,171.071 316.027,173.904 311.5,176C 308.808,176.43 306.141,176.263 303.5,175.5C 300.457,173.457 298.124,170.79 296.5,167.5C 308.864,160.828 321.198,154.162 333.5,147.5C 333.333,159.505 333.5,171.505 334,183.5C 337.073,182.142 340.24,180.975 343.5,180C 344.406,178.301 344.739,176.467 344.5,174.5C 344.5,172.833 344.5,171.167 344.5,169.5C 346.001,163.519 347.835,157.519 350,151.5C 351.013,149.154 352.679,147.487 355,146.5C 355.772,146.645 356.439,146.978 357,147.5C 357.07,158.239 357.737,168.906 359,179.5C 362.256,181.429 365.756,181.929 369.5,181C 373.241,179.5 374.907,177 374.5,173.5C 372.548,175.533 370.382,175.866 368,174.5C 367.667,163.167 367.333,151.833 367,140.5C 364.804,137.875 361.97,136.875 358.5,137.5C 383.064,129.429 408.398,126.095 434.5,127.5C 434.62,128.586 435.287,129.253 436.5,129.5C 437.416,129.457 438.083,129.124 438.5,128.5C 440.048,128.179 440.715,127.179 440.5,125.5C 440.833,125.5 441.167,125.5 441.5,125.5C 441.5,126.5 441.5,127.5 441.5,128.5C 452.998,129.083 464.332,130.75 475.5,133.5C 475.5,124.833 475.5,116.167 475.5,107.5 Z"/></g>
<g><path style="opacity:1" fill="#8f453d" d="M 314.5,178.5 C 314.631,177.624 314.298,176.957 313.5,176.5C 310.562,177.575 307.562,177.741 304.5,177C 303.944,176.617 303.611,176.117 303.5,175.5C 306.141,176.263 308.808,176.43 311.5,176C 316.027,173.904 320.027,171.071 323.5,167.5C 324.308,167.808 324.975,168.308 325.5,169C 322.236,172.773 318.57,175.94 314.5,178.5 Z"/></g>
<g><path style="opacity:1" fill="#985249" d="M 381.5,171.5 C 383.821,174.629 386.488,177.462 389.5,180C 393.382,180.89 397.048,180.39 400.5,178.5C 398.116,177.989 396.116,176.989 394.5,175.5C 401.271,176.241 405.437,173.241 407,166.5C 407.172,162.129 407.672,157.796 408.5,153.5C 411.68,151.905 415.013,150.905 418.5,150.5C 418.5,158.833 418.5,167.167 418.5,175.5C 427.469,173.391 427.803,175.225 419.5,181C 412.587,183.088 408.42,180.588 407,173.5C 400.103,184.017 392.103,185.017 383,176.5C 381.991,174.975 381.491,173.308 381.5,171.5 Z"/></g>
<g><path style="opacity:1" fill="#b4544c" d="M 413.5,152.5 C 414.5,152.5 415.5,152.5 416.5,152.5C 416.334,159.841 416.5,167.174 417,174.5C 417.637,176.303 418.803,177.636 420.5,178.5C 412.485,181.165 408.152,178.331 407.5,170C 408.956,164.945 409.79,159.778 410,154.5C 411.302,153.915 412.469,153.249 413.5,152.5 Z"/></g>
<g><path style="opacity:1" fill="#b2534a" d="M 390.5,170.5 C 392.063,171.945 393.396,173.611 394.5,175.5C 396.116,176.989 398.116,177.989 400.5,178.5C 397.048,180.39 393.382,180.89 389.5,180C 386.488,177.462 383.821,174.629 381.5,171.5C 380.666,162.811 382.499,154.811 387,147.5C 388.765,145.226 390.932,143.559 393.5,142.5C 394.167,142.833 394.833,143.167 395.5,143.5C 395.062,144.506 394.396,144.506 393.5,143.5C 392.776,146.615 391.276,149.282 389,151.5C 388.392,154.817 387.892,158.151 387.5,161.5C 387.531,164.926 388.531,167.926 390.5,170.5 Z"/></g>
<g><path style="opacity:1" fill="#995148" d="M 441.5,138.5 C 442.495,149.988 442.828,161.655 442.5,173.5C 441.505,162.679 441.172,151.679 441.5,140.5C 439.064,140.317 436.897,140.984 435,142.5C 434.333,154.167 434.333,165.833 435,177.5C 438.23,179.691 441.73,180.024 445.5,178.5C 444.388,177.735 443.721,176.735 443.5,175.5C 445.827,175.753 447.827,175.086 449.5,173.5C 450.578,175.475 450.245,177.308 448.5,179C 444.782,181.298 440.782,181.965 436.5,181C 434.951,179.786 433.785,178.286 433,176.5C 432.333,164.833 432.333,153.167 433,141.5C 435.727,140.202 438.56,139.202 441.5,138.5 Z"/></g>
<g><path style="opacity:1" fill="#9d6d64" d="M 441.5,138.5 C 441.56,137.957 441.893,137.624 442.5,137.5C 443.499,149.482 443.832,161.482 443.5,173.5C 443.167,173.5 442.833,173.5 442.5,173.5C 442.828,161.655 442.495,149.988 441.5,138.5 Z"/></g>
<g><path style="opacity:1" fill="#b4544c" d="M 442.5,173.5 C 442.833,173.5 443.167,173.5 443.5,173.5C 443.5,174.167 443.5,174.833 443.5,175.5C 443.721,176.735 444.388,177.735 445.5,178.5C 441.73,180.024 438.23,179.691 435,177.5C 434.333,165.833 434.333,154.167 435,142.5C 436.897,140.984 439.064,140.317 441.5,140.5C 441.172,151.679 441.505,162.679 442.5,173.5 Z"/></g>
<g><path style="opacity:1" fill="#9e4f46" d="M 390.5,170.5 C 388.531,167.926 387.531,164.926 387.5,161.5C 387.892,158.151 388.392,154.817 389,151.5C 391.276,149.282 392.776,146.615 393.5,143.5C 394.396,144.506 395.062,144.506 395.5,143.5C 394.833,143.167 394.167,142.833 393.5,142.5C 390.932,143.559 388.765,145.226 387,147.5C 382.499,154.811 380.666,162.811 381.5,171.5C 378.037,158.414 382.037,147.914 393.5,140C 402.639,135.806 410.639,137.306 417.5,144.5C 415.167,145.833 412.833,147.167 410.5,148.5C 402.725,141.063 396.225,142.063 391,151.5C 389.17,157.791 389.004,164.124 390.5,170.5 Z"/></g>
<g><path style="opacity:1" fill="#b05249" d="M 343.5,157.5 C 343.369,158.239 343.536,158.906 344,159.5C 344.232,158.263 344.732,157.263 345.5,156.5C 345.073,160.824 344.739,165.158 344.5,169.5C 344.5,171.167 344.5,172.833 344.5,174.5C 342.854,178.869 339.521,180.869 334.5,180.5C 334.5,155.167 334.5,129.833 334.5,104.5C 337.167,104.167 339.833,103.833 342.5,103.5C 342.17,121.674 342.503,139.674 343.5,157.5 Z"/></g>
<g><path style="opacity:1" fill="#8d4b44" d="M 342.5,101.5 C 343.497,119.993 343.83,138.659 343.5,157.5C 342.503,139.674 342.17,121.674 342.5,103.5C 339.833,103.833 337.167,104.167 334.5,104.5C 334.5,129.833 334.5,155.167 334.5,180.5C 339.521,180.869 342.854,178.869 344.5,174.5C 344.739,176.467 344.406,178.301 343.5,180C 340.24,180.975 337.073,182.142 334,183.5C 333.5,171.505 333.333,159.505 333.5,147.5C 333.5,132.833 333.5,118.167 333.5,103.5C 336.574,103.127 339.574,102.461 342.5,101.5 Z"/></g>
<g><path style="opacity:1" fill="#d0b9ae" d="M 342.5,101.5 C 342.56,100.957 342.893,100.624 343.5,100.5C 344.167,118.662 344.833,136.662 345.5,154.5C 345.5,155.167 345.5,155.833 345.5,156.5C 344.732,157.263 344.232,158.263 344,159.5C 343.536,158.906 343.369,158.239 343.5,157.5C 343.83,138.659 343.497,119.993 342.5,101.5 Z"/></g>
<g><path style="opacity:1" fill="#f6f2e8" d="M 444.5,64.5 C 454.534,69.6035 464.034,75.6035 473,82.5C 474.876,90.7141 475.709,99.0475 475.5,107.5C 475.5,116.167 475.5,124.833 475.5,133.5C 464.332,130.75 452.998,129.083 441.5,128.5C 441.5,127.5 441.5,126.5 441.5,125.5C 441.513,120.074 442.18,114.74 443.5,109.5C 440.112,109.053 436.779,109.719 433.5,111.5C 432.721,116.855 433.054,122.188 434.5,127.5C 408.398,126.095 383.064,129.429 358.5,137.5C 355.805,137.933 353.638,139.266 352,141.5C 349.295,145.577 347.128,149.91 345.5,154.5C 344.833,136.662 344.167,118.662 343.5,100.5C 342.893,100.624 342.56,100.957 342.5,101.5C 339.574,102.461 336.574,103.127 333.5,103.5C 333.5,118.167 333.5,132.833 333.5,147.5C 321.198,154.162 308.864,160.828 296.5,167.5C 294.49,162.046 293.99,156.38 295,150.5C 300.549,141.025 307.383,140.025 315.5,147.5C 324.582,144.052 324.248,140.885 314.5,138C 300.722,136.053 291.389,141.553 286.5,154.5C 285.068,160.813 285.401,167.146 287.5,173.5C 279.851,179.477 272.185,185.477 264.5,191.5C 263.283,183.693 262.616,175.693 262.5,167.5C 263.325,163.353 263.825,159.019 264,154.5C 276.159,139.342 289.659,125.508 304.5,113C 345.447,79.5207 392.113,63.3541 444.5,64.5 Z"/></g>
<g><path style="opacity:1" fill="#8d4740" d="M 441.5,125.5 C 441.167,125.5 440.833,125.5 440.5,125.5C 440.613,120.482 440.947,115.482 441.5,110.5C 437.801,110.432 435.135,111.932 433.5,115C 435.025,119.37 435.692,123.87 435.5,128.5C 436.5,128.5 437.5,128.5 438.5,128.5C 438.083,129.124 437.416,129.457 436.5,129.5C 435.287,129.253 434.62,128.586 434.5,127.5C 433.054,122.188 432.721,116.855 433.5,111.5C 436.779,109.719 440.112,109.053 443.5,109.5C 442.18,114.74 441.513,120.074 441.5,125.5 Z"/></g>
<g><path style="opacity:1" fill="#b05249" d="M 440.5,125.5 C 440.715,127.179 440.048,128.179 438.5,128.5C 437.5,128.5 436.5,128.5 435.5,128.5C 435.692,123.87 435.025,119.37 433.5,115C 435.135,111.932 437.801,110.432 441.5,110.5C 440.947,115.482 440.613,120.482 440.5,125.5 Z"/></g>
<g><path style="opacity:1" fill="#8f4942" d="M 269.5,219.5 C 276.775,223.14 283.775,227.307 290.5,232C 292.972,233.46 295.639,234.46 298.5,235C 308.441,242.129 318.775,248.463 329.5,254C 330.381,254.708 331.047,255.542 331.5,256.5C 309.865,245.687 289.199,233.354 269.5,219.5 Z"/></g>
</svg>
