<?xml version="1.0" encoding="UTF-8"?>
<!DOCTYPE svg PUBLIC "-//W3C//DTD SVG 1.1//EN" "http://www.w3.org/Graphics/SVG/1.1/DTD/svg11.dtd">
<svg xmlns="http://www.w3.org/2000/svg" version="1.1" width="225px" height="225px" style="shape-rendering:geometricPrecision; text-rendering:geometricPrecision; image-rendering:optimizeQuality; fill-rule:evenodd; clip-rule:evenodd" xmlns:xlink="http://www.w3.org/1999/xlink">
<g><path style="opacity:1" fill="#fefefe" d="M -0.5,-0.5 C 74.5,-0.5 149.5,-0.5 224.5,-0.5C 224.5,33.5 224.5,67.5 224.5,101.5C 222.167,101.5 219.833,101.5 217.5,101.5C 217.5,98.5 217.5,95.5 217.5,92.5C 215.833,92.5 214.167,92.5 212.5,92.5C 212.5,95.5 212.5,98.5 212.5,101.5C 210.833,101.5 209.167,101.5 207.5,101.5C 207.5,103.167 207.5,104.833 207.5,106.5C 209.167,106.5 210.833,106.5 212.5,106.5C 212.094,114.917 212.594,123.251 214,131.5C 217.243,133.263 220.743,133.929 224.5,133.5C 224.5,163.833 224.5,194.167 224.5,224.5C 149.5,224.5 74.5,224.5 -0.5,224.5C -0.5,198.5 -0.5,172.5 -0.5,146.5C 1.86669,158.379 9.20002,164.712 21.5,165.5C 26.6647,165.034 31.6647,163.867 36.5,162C 49.7542,153.871 64.0876,148.871 79.5,147C 86.9737,144.86 91.807,140.026 94,132.5C 94.7816,127.701 94.2816,123.034 92.5,118.5C 93.5423,114.201 93.7089,109.868 93,105.5C 90.4399,101.948 87.6066,98.7814 84.5,96C 88.1989,83.7366 92.1989,71.57 96.5,59.5C 74.8333,58.1667 53.1667,58.1667 31.5,59.5C 35.8333,72.1667 40.1667,84.8333 44.5,97.5C 33.4362,103.306 31.6029,111.306 39,121.5C 39.6667,122.5 39.6667,123.5 39,124.5C 34.9355,129.926 29.7689,133.426 23.5,135C 19.7928,132.24 18.7928,128.74 20.5,124.5C 29.7316,119.347 31.8982,112.013 27,102.5C 17.4311,94.9133 9.43113,96.2467 3,106.5C 1.97941,111.82 2.81275,116.82 5.5,121.5C 3.72598,126.696 1.72598,131.696 -0.5,136.5C -0.5,90.8333 -0.5,45.1667 -0.5,-0.5 Z"/></g>
<g><path style="opacity:1" fill="#9a434f" d="M -0.5,146.5 C -0.5,143.167 -0.5,139.833 -0.5,136.5C 1.72598,131.696 3.72598,126.696 5.5,121.5C 2.81275,116.82 1.97941,111.82 3,106.5C 9.43113,96.2467 17.4311,94.9133 27,102.5C 31.8982,112.013 29.7316,119.347 20.5,124.5C 18.7928,128.74 19.7928,132.24 23.5,135C 29.7689,133.426 34.9355,129.926 39,124.5C 39.6667,123.5 39.6667,122.5 39,121.5C 31.6029,111.306 33.4362,103.306 44.5,97.5C 40.1667,84.8333 35.8333,72.1667 31.5,59.5C 53.1667,58.1667 74.8333,58.1667 96.5,59.5C 92.1989,71.57 88.1989,83.7366 84.5,96C 87.6066,98.7814 90.4399,101.948 93,105.5C 93.7089,109.868 93.5423,114.201 92.5,118.5C 94.2816,123.034 94.7816,127.701 94,132.5C 91.807,140.026 86.9737,144.86 79.5,147C 64.0876,148.871 49.7542,153.871 36.5,162C 31.6647,163.867 26.6647,165.034 21.5,165.5C 9.20002,164.712 1.86669,158.379 -0.5,146.5 Z"/></g>
<g><path style="opacity:1" fill="#fcfbfb" d="M 39.5,64.5 C 55.8469,64.1672 72.1803,64.5006 88.5,65.5C 84.6362,75.7576 80.9696,86.0909 77.5,96.5C 76.7261,97.7112 75.8928,97.7112 75,96.5C 71.3333,89.1667 67.6667,81.8333 64,74.5C 60.3256,82.5213 56.159,90.1879 51.5,97.5C 47.1093,86.6628 43.1093,75.6628 39.5,64.5 Z"/></g>
<g><path style="opacity:1" fill="#faf6f7" d="M 63.5,88.5 C 66.5822,92.3246 68.9155,96.6579 70.5,101.5C 68.7661,104.356 66.5994,106.689 64,108.5C 63.1667,108.167 62.3333,107.833 61.5,107.5C 60.4196,105.004 59.0862,102.67 57.5,100.5C 59.9339,96.7283 61.9339,92.7283 63.5,88.5 Z"/></g>
<g><path style="opacity:1" fill="#9b4551" d="M 132.5,89.5 C 134.5,89.5 136.5,89.5 138.5,89.5C 138.667,101.505 138.5,113.505 138,125.5C 134.723,133.143 128.89,135.976 120.5,134C 114.339,131.183 111.672,126.35 112.5,119.5C 114.5,119.5 116.5,119.5 118.5,119.5C 117.716,127.885 121.383,131.051 129.5,129C 130.701,128.097 131.535,126.931 132,125.5C 132.5,113.505 132.667,101.505 132.5,89.5 Z"/></g>
<g><path style="opacity:1" fill="#9e4b56" d="M 224.5,101.5 C 224.5,103.167 224.5,104.833 224.5,106.5C 222.167,106.5 219.833,106.5 217.5,106.5C 217.334,113.508 217.5,120.508 218,127.5C 220.041,128.423 222.208,128.756 224.5,128.5C 224.5,130.167 224.5,131.833 224.5,133.5C 220.743,133.929 217.243,133.263 214,131.5C 212.594,123.251 212.094,114.917 212.5,106.5C 210.833,106.5 209.167,106.5 207.5,106.5C 207.5,104.833 207.5,103.167 207.5,101.5C 209.167,101.5 210.833,101.5 212.5,101.5C 212.5,98.5 212.5,95.5 212.5,92.5C 214.167,92.5 215.833,92.5 217.5,92.5C 217.5,95.5 217.5,98.5 217.5,101.5C 219.833,101.5 222.167,101.5 224.5,101.5 Z"/></g>
<g><path style="opacity:1" fill="#9a424f" d="M 184.5,101.5 C 188.846,101.334 193.179,101.501 197.5,102C 201.276,103.605 203.276,106.438 203.5,110.5C 200.136,111.211 197.803,110.044 196.5,107C 193.298,105.517 189.964,105.183 186.5,106C 183.833,108.333 183.833,110.667 186.5,113C 190.029,114.466 193.695,115.466 197.5,116C 205.631,119.904 206.631,125.238 200.5,132C 195.254,133.506 189.921,133.839 184.5,133C 180.199,131.215 178.199,128.048 178.5,123.5C 180.167,123.5 181.833,123.5 183.5,123.5C 184.354,128.03 187.188,130.03 192,129.5C 197.559,129.623 199.725,127.123 198.5,122C 194.417,119.895 190.083,118.562 185.5,118C 176.542,113.037 176.208,107.537 184.5,101.5 Z"/></g>
<g><path style="opacity:1" fill="#99414e" d="M 174.5,118.5 C 166.5,118.5 158.5,118.5 150.5,118.5C 150.232,120.099 150.566,121.432 151.5,122.5C 152.392,127.38 155.392,129.713 160.5,129.5C 164.484,129.845 167.151,128.179 168.5,124.5C 170.045,123.548 171.712,123.215 173.5,123.5C 173.262,127.138 171.596,129.971 168.5,132C 150.964,136.471 143.464,129.638 146,111.5C 149.653,102.59 156.153,99.4237 165.5,102C 172.007,105.508 175.007,111.008 174.5,118.5 Z"/></g>
<g><path style="opacity:1" fill="#fbf8f8" d="M 12.5,103.5 C 20.6559,102.821 24.1559,106.488 23,114.5C 20.0453,118.277 16.212,119.443 11.5,118C 6.00278,112.683 6.33611,107.85 12.5,103.5 Z"/></g>
<g><path style="opacity:1" fill="#fbf8f9" d="M 44.5,103.5 C 51.244,102.198 55.244,104.864 56.5,111.5C 54.9685,118.044 50.9685,120.211 44.5,118C 39.2138,113.169 39.2138,108.335 44.5,103.5 Z"/></g>
<g><path style="opacity:1" fill="#faf6f6" d="M 76.5,103.5 C 85.8631,102.608 89.3631,106.608 87,115.5C 81.9791,120.917 77.3125,120.584 73,114.5C 71.6624,109.96 72.8291,106.293 76.5,103.5 Z"/></g>
<g><path style="opacity:1" fill="#fbf9f9" d="M 156.5,105.5 C 160.131,105.16 163.464,105.994 166.5,108C 168.016,109.897 168.683,112.064 168.5,114.5C 162.5,114.5 156.5,114.5 150.5,114.5C 151.26,110.639 153.26,107.639 156.5,105.5 Z"/></g>
<g><path style="opacity:1" fill="#f9f5f6" d="M 224.5,106.5 C 224.5,113.833 224.5,121.167 224.5,128.5C 222.208,128.756 220.041,128.423 218,127.5C 217.5,120.508 217.334,113.508 217.5,106.5C 219.833,106.5 222.167,106.5 224.5,106.5 Z"/></g>
<g><path style="opacity:1" fill="#fcfbfb" d="M 61.5,114.5 C 63.5,114.5 65.5,114.5 67.5,114.5C 68.1323,119.305 70.799,122.472 75.5,124C 79.807,124.299 83.9737,124.466 88,124.5C 88.949,133.897 84.7824,139.73 75.5,142C 69.0808,142.95 62.7475,144.284 56.5,146C 48.5,149.667 40.5,153.333 32.5,157C 20.3378,162.505 11.5045,159.339 6,147.5C 4.91117,138.848 7.07784,131.181 12.5,124.5C 12.602,131.684 15.602,137.184 21.5,141C 31.8424,139.651 39.8424,134.484 45.5,125.5C 53.6015,125.715 58.9349,122.049 61.5,114.5 Z"/></g>
<g><path style="opacity:1" fill="#c69ca1" d="M 174.5,118.5 C 167.018,119.492 159.352,119.825 151.5,119.5C 151.5,120.5 151.5,121.5 151.5,122.5C 150.566,121.432 150.232,120.099 150.5,118.5C 158.5,118.5 166.5,118.5 174.5,118.5 Z"/></g>
</svg>
