<?xml version="1.0" encoding="UTF-8"?>
<!DOCTYPE svg PUBLIC "-//W3C//DTD SVG 1.1//EN" "http://www.w3.org/Graphics/SVG/1.1/DTD/svg11.dtd">
<svg xmlns="http://www.w3.org/2000/svg" version="1.1" width="600px" height="600px" style="shape-rendering:geometricPrecision; text-rendering:geometricPrecision; image-rendering:optimizeQuality; fill-rule:evenodd; clip-rule:evenodd" xmlns:xlink="http://www.w3.org/1999/xlink">
<g><path style="opacity:1" fill="#fefefe" d="M -0.5,-0.5 C 199.5,-0.5 399.5,-0.5 599.5,-0.5C 599.5,199.5 599.5,399.5 599.5,599.5C 399.5,599.5 199.5,599.5 -0.5,599.5C -0.5,399.5 -0.5,199.5 -0.5,-0.5 Z"/></g>
<g><path style="opacity:1" fill="#0c998b" d="M 71.5,249.5 C 99.6091,247.955 118.442,260.288 128,286.5C 132.624,317.099 120.458,337.599 91.5,348C 67.6575,352.659 49.1575,344.826 36,324.5C 23.2228,297.443 28.7228,274.943 52.5,257C 58.604,253.583 64.9373,251.083 71.5,249.5 Z"/></g>
<g><path style="opacity:1" fill="#8dd0c9" d="M 169.5,256.5 C 186.659,255.503 203.992,255.17 221.5,255.5C 221.815,259.371 221.482,263.038 220.5,266.5C 220.5,263.167 220.5,259.833 220.5,256.5C 203.5,256.5 186.5,256.5 169.5,256.5 Z"/></g>
<g><path style="opacity:1" fill="#069789" d="M 169.5,256.5 C 186.5,256.5 203.5,256.5 220.5,256.5C 220.5,259.833 220.5,263.167 220.5,266.5C 207.5,266.5 194.5,266.5 181.5,266.5C 181.5,275.167 181.5,283.833 181.5,292.5C 193.167,292.5 204.833,292.5 216.5,292.5C 216.5,295.833 216.5,299.167 216.5,302.5C 204.833,302.5 193.167,302.5 181.5,302.5C 180.505,315.323 180.171,328.323 180.5,341.5C 176.833,341.5 173.167,341.5 169.5,341.5C 169.5,313.167 169.5,284.833 169.5,256.5 Z"/></g>
<g><path style="opacity:1" fill="#14998c" d="M 424.5,255.5 C 428.437,255.207 432.27,255.54 436,256.5C 448.606,284.38 460.106,312.713 470.5,341.5C 465.88,342.493 461.214,342.827 456.5,342.5C 454.673,335.186 452.34,328.02 449.5,321C 436.171,320.5 422.837,320.333 409.5,320.5C 407.771,327.686 405.438,334.686 402.5,341.5C 398.555,342.491 394.555,342.824 390.5,342.5C 399.879,312.741 411.213,283.741 424.5,255.5 Z"/></g>
<g><path style="opacity:1" fill="#10988a" d="M 494.5,310.5 C 493.506,320.653 493.172,330.986 493.5,341.5C 489.833,341.5 486.167,341.5 482.5,341.5C 482.5,313.5 482.5,285.5 482.5,257.5C 488.419,255.955 494.586,255.289 501,255.5C 514.21,253.993 526.043,257.159 536.5,265C 543.943,275.787 544.443,286.953 538,298.5C 532.867,304.484 526.367,307.984 518.5,309C 510.547,310.223 502.547,310.723 494.5,310.5 Z"/></g>
<g><path style="opacity:1" fill="#099789" d="M 557.5,255.5 C 561.5,255.5 565.5,255.5 569.5,255.5C 569.5,284.5 569.5,313.5 569.5,342.5C 565.5,342.5 561.5,342.5 557.5,342.5C 557.5,313.5 557.5,284.5 557.5,255.5 Z"/></g>
<g><path style="opacity:1" fill="#71c4bc" d="M 482.5,257.5 C 482.5,285.5 482.5,313.5 482.5,341.5C 486.167,341.5 489.833,341.5 493.5,341.5C 493.172,330.986 493.506,320.653 494.5,310.5C 494.5,321.167 494.5,331.833 494.5,342.5C 490.167,342.5 485.833,342.5 481.5,342.5C 481.169,313.995 481.502,285.662 482.5,257.5 Z"/></g>
<g><path style="opacity:1" fill="#099789" d="M 359.5,257.5 C 359.5,264.167 359.5,270.833 359.5,277.5C 367.316,278.492 375.316,278.826 383.5,278.5C 383.5,281.167 383.5,283.833 383.5,286.5C 375.316,286.174 367.316,286.508 359.5,287.5C 359.119,300.879 359.619,314.212 361,327.5C 364.636,333.177 369.803,335.01 376.5,333C 379,332.625 381.333,331.792 383.5,330.5C 384.086,330.709 384.586,331.043 385,331.5C 386.31,334.503 386.476,337.503 385.5,340.5C 375.359,344.597 365.359,344.431 355.5,340C 353.044,337.592 351.211,334.759 350,331.5C 348.529,307.232 348.029,282.899 348.5,258.5C 352.198,258.448 355.865,258.114 359.5,257.5 Z"/></g>
<g><path style="opacity:1" fill="#fbfdfd" d="M 82.5,263.5 C 83.1667,272.5 83.8333,281.5 84.5,290.5C 89.8746,290.172 95.2079,290.505 100.5,291.5C 92.8834,306.399 85.5501,321.399 78.5,336.5C 77.8333,327.167 77.1667,317.833 76.5,308.5C 71.1667,307.833 65.8333,307.167 60.5,306.5C 67.5779,292.01 74.9112,277.677 82.5,263.5 Z"/></g>
<g><path style="opacity:1" fill="#cce9e7" d="M 84.5,290.5 C 83.8333,281.5 83.1667,272.5 82.5,263.5C 82.4614,262.244 82.9614,261.244 84,260.5C 84.4998,270.494 84.6665,280.494 84.5,290.5 Z"/></g>
<g><path style="opacity:1" fill="#fcfdfd" d="M 494.5,265.5 C 502.983,264.989 511.316,265.822 519.5,268C 529.435,272.674 532.268,280.174 528,290.5C 525.314,295.432 521.148,298.265 515.5,299C 508.508,299.5 501.508,299.666 494.5,299.5C 494.5,288.167 494.5,276.833 494.5,265.5 Z"/></g>
<g><path style="opacity:1" fill="#f9fcfc" d="M 444.5,307.5 C 434.889,309.474 424.889,310.141 414.5,309.5C 418.558,296.052 423.724,283.052 430,270.5C 435.526,282.581 440.359,294.914 444.5,307.5 Z"/></g>
<g><path style="opacity:1" fill="#169a8c" d="M 259.5,303.5 C 260.568,304.434 261.901,304.768 263.5,304.5C 263.802,301.941 263.468,299.607 262.5,297.5C 262.335,292.16 259.668,288.66 254.5,287C 246.709,286.076 239.042,286.576 231.5,288.5C 231.335,285.15 231.502,281.817 232,278.5C 240.673,275.375 249.506,274.875 258.5,277C 267.036,278.869 272.203,284.036 274,292.5C 274.5,308.83 274.667,325.163 274.5,341.5C 262.893,343.27 251.227,343.77 239.5,343C 226.458,338.426 221.625,329.259 225,315.5C 229.551,307.639 236.384,303.473 245.5,303C 250.204,302.352 254.871,302.519 259.5,303.5 Z"/></g>
<g><path style="opacity:1" fill="#169a8c" d="M 303.5,276.5 C 311.893,276.17 320.227,276.67 328.5,278C 329.428,278.388 330.095,279.055 330.5,280C 329.652,282.77 329.319,285.603 329.5,288.5C 325.856,287.685 322.189,286.852 318.5,286C 312.074,284.35 306.574,285.85 302,290.5C 300.622,294.898 301.788,298.398 305.5,301C 312.833,304.333 320.167,307.667 327.5,311C 335.338,318.525 336.504,327.025 331,336.5C 327.238,340.13 322.738,342.297 317.5,343C 308.327,344.136 299.327,343.469 290.5,341C 289.484,340.481 288.818,339.647 288.5,338.5C 288.981,335.917 289.648,333.417 290.5,331C 293.244,331.019 295.911,331.686 298.5,333C 306.045,334.126 313.379,333.46 320.5,331C 323.615,326.356 322.948,322.356 318.5,319C 312.07,315.451 305.404,312.451 298.5,310C 290.979,304.782 288.145,297.616 290,288.5C 292.85,282.514 297.35,278.514 303.5,276.5 Z"/></g>
<g><path style="opacity:1" fill="#daefed" d="M 359.5,257.5 C 360.49,263.645 360.823,269.978 360.5,276.5C 368.684,276.174 376.684,276.508 384.5,277.5C 376.167,277.5 367.833,277.5 359.5,277.5C 359.5,270.833 359.5,264.167 359.5,257.5 Z"/></g>
<g><path style="opacity:1" fill="#3caea3" d="M 359.5,277.5 C 367.833,277.5 376.167,277.5 384.5,277.5C 384.5,280.833 384.5,284.167 384.5,287.5C 376.167,287.5 367.833,287.5 359.5,287.5C 367.316,286.508 375.316,286.174 383.5,286.5C 383.5,283.833 383.5,281.167 383.5,278.5C 375.316,278.826 367.316,278.492 359.5,277.5 Z"/></g>
<g><path style="opacity:1" fill="#9fd6d1" d="M 262.5,297.5 C 263.468,299.607 263.802,301.941 263.5,304.5C 261.901,304.768 260.568,304.434 259.5,303.5C 260.5,303.5 261.5,303.5 262.5,303.5C 262.5,301.5 262.5,299.5 262.5,297.5 Z"/></g>
<g><path style="opacity:1" fill="#72c4bc" d="M 169.5,256.5 C 169.5,284.833 169.5,313.167 169.5,341.5C 173.167,341.5 176.833,341.5 180.5,341.5C 180.171,328.323 180.505,315.323 181.5,302.5C 181.5,315.833 181.5,329.167 181.5,342.5C 177.167,342.5 172.833,342.5 168.5,342.5C 168.169,313.662 168.502,284.995 169.5,256.5 Z"/></g>
<g><path style="opacity:1" fill="#a8dad6" d="M 60.5,306.5 C 65.8333,307.167 71.1667,307.833 76.5,308.5C 70.7945,308.829 65.1278,308.495 59.5,307.5C 59.6236,306.893 59.9569,306.56 60.5,306.5 Z"/></g>
<g><path style="opacity:1" fill="#aadbd7" d="M 76.5,308.5 C 77.1667,317.833 77.8333,327.167 78.5,336.5C 78.2172,337.289 77.7172,337.956 77,338.5C 76.5002,328.506 76.3335,318.506 76.5,308.5 Z"/></g>
<g><path style="opacity:1" fill="#bfe4e1" d="M 444.5,307.5 C 445.404,308.209 445.737,309.209 445.5,310.5C 434.986,310.828 424.653,310.494 414.5,309.5C 424.889,310.141 434.889,309.474 444.5,307.5 Z"/></g>
<g><path style="opacity:1" fill="#f9fcfc" d="M 244.5,312.5 C 250.869,312.347 257.203,312.68 263.5,313.5C 263.5,320.167 263.5,326.833 263.5,333.5C 256.492,333.666 249.492,333.5 242.5,333C 236.891,329.723 235.058,324.89 237,318.5C 239.109,315.878 241.609,313.878 244.5,312.5 Z"/></g>
</svg>
